<?xml version="1.0" standalone="no"?>
<!DOCTYPE svg PUBLIC "-//W3C//DTD SVG 20010904//EN"
 "http://www.w3.org/TR/2001/REC-SVG-20010904/DTD/svg10.dtd">
<svg version="1.0" xmlns="http://www.w3.org/2000/svg"
 width="442.000000pt" height="442.000000pt" viewBox="0 0 442.000000 442.000000"
 preserveAspectRatio="xMidYMid meet">
<metadata>
Created by potrace 1.14, written by Peter Selinger 2001-2017
</metadata>
<g transform="translate(0.000000,442.000000) scale(0.100000,-0.100000)"
fill="#000000" stroke="none">
<path d="M1418 2572 c-25 -2 -52 -10 -59 -18 -17 -21 -20 -64 -4 -64 21 0 23
-23 5 -42 -16 -17 -51 -18 -568 -18 l-552 0 -16 -25 c-20 -31 -12 -68 21 -97
l25 -22 -20 -21 c-25 -27 -35 -71 -18 -81 16 -10 114 -5 146 7 27 10 98 69 85
69 -4 1 3 9 15 20 23 19 41 20 398 19 344 -1 374 -3 374 -18 0 -24 19 -41 38
-34 10 5 13 2 8 -6 -6 -10 3 -12 35 -10 48 3 81 26 106 73 12 23 94 140 109
156 7 7 286 9 1087 8 267 -1 340 -4 344 -14 2 -7 -14 -44 -37 -83 -32 -53 -41
-77 -36 -96 4 -14 12 -26 19 -26 78 -9 123 0 144 27 9 13 42 15 205 14 106 -1
319 -3 473 -3 244 -2 279 -4 276 -17 -2 -8 -6 -30 -9 -47 l-4 -33 66 0 c54 0
69 4 86 22 11 12 20 25 20 28 0 14 36 47 58 55 38 11 59 39 56 71 -6 49 -7 53
-15 48 -4 -2 -9 1 -11 7 -3 9 -142 12 -545 10 -362 -1 -544 2 -548 9 -5 8 14
20 51 35 1 0 4 9 8 21 4 14 0 30 -13 45 l-19 23 -808 3 c-445 2 -836 4 -869 6
-33 1 -81 1 -107 -1z"/>
<path d="M1653 2362 c-20 -3 -23 -9 -23 -48 0 -37 3 -44 19 -44 11 0 21 6 24
13 3 10 9 10 26 0 25 -15 55 -17 46 -3 -3 5 -1 18 4 28 20 38 -28 65 -96 54z
m65 -37 c3 -3 -7 -5 -21 -5 -15 0 -27 4 -27 9 0 10 38 7 48 -4z"/>
<path d="M1770 2318 l0 -48 56 0 c34 0 53 4 49 10 -3 6 -19 10 -36 10 -16 0
-29 4 -29 9 0 6 10 8 21 6 12 -3 29 0 38 5 14 7 14 9 1 14 -8 3 -28 7 -45 9
-23 3 -21 4 12 6 63 2 47 26 -17 26 l-50 0 0 -47z"/>
<path d="M1908 2362 c-24 -5 -26 -92 -4 -92 8 0 18 5 21 10 3 6 19 10 35 10
16 0 36 7 45 16 9 9 17 15 18 13 1 -2 7 -13 13 -24 13 -23 77 -33 99 -15 18
15 24 68 10 80 -13 11 -37 -9 -34 -26 4 -25 -3 -35 -23 -32 -18 2 -23 9 -23
31 1 19 -4 27 -17 27 -10 0 -18 -7 -18 -15 0 -8 -4 -15 -10 -15 -5 0 -10 7
-10 15 0 10 -10 15 -27 16 -16 0 -35 2 -43 3 -8 1 -23 1 -32 -2z m70 -37 c3
-3 -7 -5 -21 -5 -15 0 -27 4 -27 9 0 10 38 7 48 -4z"/>
<path d="M2175 2362 c-3 -3 -5 -25 -5 -49 l0 -43 55 0 c31 0 55 4 55 10 0 7 6
7 19 0 29 -15 87 -12 101 5 17 21 3 34 -38 37 -17 1 -32 6 -32 10 0 4 19 6 43
4 23 -3 50 -5 60 -5 12 -1 17 -9 17 -31 0 -24 4 -30 21 -30 13 0 20 6 18 18
-3 33 1 42 21 42 21 0 29 29 8 31 -56 4 -101 3 -104 -3 -3 -4 -15 -3 -27 1
-12 5 -35 6 -52 4 -39 -7 -61 -7 -113 -1 -23 2 -44 2 -47 0z m112 -37 c5 -8
23 -15 41 -17 62 -5 40 -13 -39 -15 -43 -1 -79 2 -79 6 0 5 13 7 29 6 18 -1
32 3 35 11 3 9 -7 14 -37 17 l-42 4 42 1 c28 1 45 -3 50 -13z"/>
<path d="M2564 2360 c-28 -11 -36 -55 -14 -75 36 -33 110 -10 110 34 0 34 -56
58 -96 41z m56 -46 c0 -17 -36 -19 -46 -3 -8 14 14 29 33 22 7 -3 13 -11 13
-19z"/>
<path d="M2693 2359 c-26 -9 -29 -28 -10 -48 10 -11 10 -13 0 -7 -8 4 -13 1
-13 -7 0 -29 88 -38 110 -12 17 21 1 37 -39 39 -17 0 -31 5 -31 9 0 5 18 6 40
2 25 -4 40 -3 40 4 0 22 -59 34 -97 20z m49 -61 c-7 -7 -16 -7 -28 0 -14 8
-13 10 10 10 18 0 24 -4 18 -10z"/>
<path d="M140 2120 c-86 -16 -128 -60 -134 -138 -4 -67 8 -102 49 -138 82 -73
310 -56 358 25 32 55 24 67 -42 66 -42 0 -65 -5 -78 -17 -26 -24 -104 -26
-137 -4 -29 18 -35 60 -13 89 24 32 157 28 157 -4 0 -5 29 -9 65 -9 72 0 78 7
51 59 -17 32 -48 54 -91 66 -41 10 -143 13 -185 5z"/>
<path d="M2425 2124 c-100 -24 -136 -60 -143 -140 -9 -111 40 -168 159 -182
122 -14 220 16 251 78 42 83 12 186 -64 223 -36 18 -162 31 -203 21z m147
-124 c19 -23 18 -63 -2 -84 -25 -26 -139 -22 -156 6 -12 20 -13 62 -1 76 31
38 129 39 159 2z"/>
<path d="M472 1965 c-1 -85 2 -155 6 -156 38 -6 112 -4 113 3 1 4 2 27 3 51
l1 42 92 3 92 3 3 -53 3 -53 58 0 c32 0 57 4 58 10 1 17 1 258 0 283 -1 20 -6
22 -61 22 l-60 0 0 -54 0 -55 -90 1 c-49 1 -91 5 -91 10 -1 4 -2 27 -3 51 l-1
42 -61 3 -61 3 -1 -156z"/>
<path d="M970 1965 c0 -85 3 -156 8 -156 4 -1 87 -2 185 -3 l178 -1 -3 40 -3
40 -119 0 c-106 0 -119 2 -122 18 -3 20 -8 19 131 21 l110 1 3 37 3 38 -117
-1 c-64 0 -121 4 -126 9 -24 24 7 32 123 32 l119 0 0 40 0 40 -185 0 -185 0 0
-155z"/>
<path d="M1426 1973 c42 -82 81 -152 85 -157 5 -6 41 -10 79 -11 l71 -1 80
158 80 158 -69 0 -69 0 -43 -97 c-23 -54 -45 -101 -49 -105 -6 -7 -25 28 -76
145 l-25 57 -70 0 -70 0 76 -147z"/>
<path d="M1830 1962 l0 -157 60 -1 c63 0 66 3 61 59 -2 18 10 21 79 17 33 -1
42 -8 76 -54 10 -16 27 -20 78 -21 71 -2 70 -3 27 53 -14 20 -21 36 -15 40 50
35 67 107 39 162 -27 53 -56 60 -240 60 l-165 0 0 -158z m291 51 c21 -25 -6
-37 -87 -38 -77 -1 -93 7 -81 38 7 20 152 20 168 0z"/>
<path d="M2819 2053 c-20 -38 -57 -107 -82 -155 -26 -47 -47 -88 -47 -90 0 -2
30 -3 67 -3 62 0 68 2 80 25 11 23 18 25 92 26 77 2 80 1 91 -25 10 -26 14
-27 75 -26 35 0 66 3 68 5 2 3 -33 74 -77 157 l-81 153 -75 0 -75 0 -36 -67z
m139 -114 c-14 -9 -58 -4 -58 6 0 18 12 50 23 64 9 10 15 5 28 -25 9 -22 12
-42 7 -45z"/>
<path d="M3182 1963 l3 -158 180 0 180 0 0 50 0 50 -105 1 c-58 1 -113 2 -122
3 -15 1 -17 13 -16 84 1 139 7 127 -62 127 l-61 0 3 -157z"/>
<path d="M3590 1962 l0 -157 183 0 182 0 0 40 0 40 -110 1 c-140 2 -135 1
-135 19 0 18 -3 17 135 19 l110 1 0 38 1 38 -81 -1 c-160 -3 -165 -2 -165 20
0 19 7 20 124 20 l124 0 0 40 1 40 -185 0 -184 0 0 -158z"/>
<path d="M3999 2105 c-1 -8 -1 -26 -1 -40 0 -14 0 -29 1 -35 1 -6 32 -10 71
-10 66 0 70 -1 71 -22 0 -13 1 -61 2 -108 l2 -84 50 -2 c28 0 55 2 60 5 7 4
11 47 11 106 l-1 100 70 3 c38 2 72 7 75 12 3 5 4 27 2 50 l-4 40 -204 0
c-174 0 -204 -2 -205 -15z"/>
</g>
</svg>
